# xmcd CD database file
#
# Track frame offsets:
#	150
#	11119
#	20382
#	32139
#	42152
#	51265
#	60547
#	74572
#	83122
#	93060
#	103785
#	112317
#	121730
#	134405
#	146818
#	158640
#	167650
#	179172
#	189551
#	197933
#	213133
#	226183
#	237433
#	243283
#
# Disc length: 3395 seconds
#
# Revision: 2
# Processed by: cddbd v1.5.2PL0 Copyright (c) Steve Scherf et al.
# Submitted via: CDex 1.70beta2
#
DISCID=560d4118
DTITLE=William , Larry  - Here's Larry Williams: The Specialty Rock'n'Roll Recordings
DYEAR=2010
DGENRE=Rock and roll
TTITLE0=Short Fat Fannie (Larry Williams)
TTITLE1=Make A Little Love (Larry Williams)
TTITLE2=Hootchy-Koo (Larry Williams)
TTITLE3=Lawdy Miss Clawdy (Lloyd Price)
TTITLE4=Peaches and Cream (Larry Williams)
TTITLE5=Give Me Love (B. and E.Johnson)
TTITLE6=Bony Maronie (Larry Williams)
TTITLE7=Little School Girl (Larry Williams)
TTITLE8=Dizzy Miss Lizzy (Larry Williams)
TTITLE9=Teardrops (Larry Williams)
TTITLE10=You Bug Me, Baby (S.Bono-Larry Williams)
TTITLE11=Ting-A-Ling (Larry Williams)
TTITLE12=Just Because (Llpyd Price)
TTITLE13=Slow Down (Larry Williams)
TTITLE14=Let Me Tell You Baby (Larry Williams)
TTITLE15=The Dummy  (Larry Williams)
TTITLE16=High School Dance (S.Bono-V.Oliva)
TTITLE17=Bad Boy (Larry Williams)
TTITLE18=She Said, Yeah (S.Christy-G.Jackson)
TTITLE19=Slow Down (Alternate Take) (Larry Williams)
TTITLE20=Short Fat Fannie (Alternate Take) (Larry Williams)
TTITLE21=Steal A Little Kiss (M.Okun)
TTITLE22=You Bug Me, Baby (Alternate Take) (S.Bono-Larry Williams)
TTITLE23=I Can't Stop Loving You (Larry Williams)
EXTD=YEAR: 2010
EXTT0=
EXTT1=
EXTT2=
EXTT3=
EXTT4=
EXTT5=
EXTT6=
EXTT7=
EXTT8=
EXTT9=
EXTT10=
EXTT11=
EXTT12=
EXTT13=
EXTT14=
EXTT15=
EXTT16=
EXTT17=
EXTT18=
EXTT19=
EXTT20=
EXTT21=
EXTT22=
EXTT23=
PLAYORDER=
